<svg width="44" height="44" viewBox="0 0 44 44" fill="none" xmlns="http://www.w3.org/2000/svg">
<circle cx="22" cy="22" r="12" fill="#3184FF"/>
<path d="M20.6308 28C20.2754 28 19.9733 27.8426 19.7246 27.5279L16.2732 23.1631C16.1755 23.0445 16.1044 22.9282 16.06 22.8141C16.02 22.7001 16 22.5815 16 22.4584C16 22.1847 16.0888 21.959 16.2665 21.7811C16.4442 21.6032 16.6685 21.5143 16.9395 21.5143C17.246 21.5143 17.5036 21.6488 17.7124 21.9179L20.6041 25.6807L26.2476 16.4994C26.3631 16.317 26.4831 16.1893 26.6074 16.1163C26.7318 16.0388 26.8873 16 27.0738 16C27.3448 16 27.5669 16.0867 27.7401 16.26C27.9134 16.4333 28 16.6545 28 16.9236C28 17.0331 27.9822 17.1425 27.9467 17.252C27.9112 17.3615 27.8556 17.4755 27.7801 17.5941L21.5436 27.5006C21.3304 27.8335 21.0261 28 20.6308 28Z" fill="white"/>
</svg>
