<svg width="83" height="77" viewBox="0 0 83 77" fill="none" xmlns="http://www.w3.org/2000/svg">
<path d="M60.4524 16.2262C60.4524 25.1877 53.1877 32.4524 44.2262 32.4524C35.2647 32.4524 28 25.1877 28 16.2262C28 7.26472 35.2647 0 44.2262 0C53.1877 0 60.4524 7.26472 60.4524 16.2262Z" fill="#C6D4F7"/>
<path d="M63.0526 38.0469L67.4207 46.5253L76.5045 43.6188L73.5981 52.7026L82.0765 57.0707L73.5981 61.4388L76.5045 70.5226L67.4207 67.6161L63.0526 76.0945L58.6846 67.6161L49.6008 70.5226L52.5072 61.4388L44.0288 57.0707L52.5072 52.7026L49.6008 43.6188L58.6846 46.5253L63.0526 38.0469Z" fill="#4A86FF"/>
<path d="M18.8979 35L37.7959 67.7322H0L18.8979 35Z" fill="#90BAFC"/>
</svg>
