<svg width="104" height="66" viewBox="0 0 104 66" fill="none" xmlns="http://www.w3.org/2000/svg">
<g id="_&#235;&#160;&#136;&#236;&#157;&#180;&#236;&#150;&#180;_1" clip-path="url(#clip0_849_9175)">
<g id="Codes">
<g id="Group 1171277351">
<path id="Vector" fill-rule="evenodd" clip-rule="evenodd" d="M15.0918 0H88.1011C89.6025 0 90.8 1.23366 90.8 2.74832V53.0182H12.3667V2.74832C12.3667 1.23492 13.5905 0 15.0918 0Z" fill="#4A86FF"/>
<path id="Vector_2" fill-rule="evenodd" clip-rule="evenodd" d="M0.24039 62.216H102.953C103.232 62.216 103.176 61.9917 102.841 61.7384L91.8005 53.1873C91.4655 52.9075 90.938 52.7109 90.6592 52.7109H12.5334C12.2546 52.7109 11.7271 52.9075 11.3934 53.1873L0.351644 61.7384C0.0166301 61.9905 -0.0383722 62.216 0.24039 62.216Z" fill="#90BAFC"/>
<path id="Vector_3" fill-rule="evenodd" clip-rule="evenodd" d="M0.628986 61.5977H102.565C103.316 61.5977 103.398 62.2428 102.731 63.0266L101.341 64.5967C100.644 65.3818 99.4769 65.9993 98.6981 65.9993H4.49415C3.71662 65.9993 2.54782 65.3831 1.85279 64.5967L0.461479 63.0266C-0.2048 62.2428 -0.149797 61.5977 0.628986 61.5977Z" fill="#4A86FF"/>
<path id="Vector_4" fill-rule="evenodd" clip-rule="evenodd" d="M43.6008 57.4492H47.9109H55.2813H59.5939L62.0128 60.1144H52.8612H50.331H41.1807L43.6008 57.4492Z" fill="#E5E5E5"/>
<path id="Vector_5" d="M88.3513 3.42188H14.8407V50.3273H88.3513V3.42188Z" fill="#E5E5E5"/>
<path id="Vector_6" d="M60.5375 12.3359H19.9583V14.6634H60.5375V12.3359Z" fill="#808080"/>
<path id="Vector_7" d="M67.6864 16.9062H43.6279V18.896H67.6864V16.9062Z" fill="#808080"/>
<path id="Vector_8" d="M45.4082 21.1133H21.3772V23.1043H45.4082V21.1133Z" fill="#808080"/>
<path id="Vector_9" d="M45.4082 29.918H21.3772V31.909H45.4082V29.918Z" fill="#808080"/>
<path id="Vector_10" d="M45.4082 33.4219H21.3772V35.4406H45.4082V33.4219Z" fill="#808080"/>
<path id="Vector_11" opacity="0.9" d="M55.086 33.4219H47.4932V35.4406H55.086V33.4219Z" fill="url(#paint0_linear_849_9175)"/>
<path id="Vector_12" d="M65.3216 33.4219H57.7288V35.4406H65.3216V33.4219Z" fill="#808080"/>
<path id="Vector_13" d="M65.323 30.0273H48.1348V32.0183H65.323V30.0273Z" fill="#808080"/>
<path id="Vector_14" d="M63.7363 21.1133H50.7758V23.1043H63.7363V21.1133Z" fill="#808080"/>
<path id="Vector_15" d="M30.0262 16.9062H23.0734V18.896H30.0262V16.9062Z" fill="#808080"/>
<path id="Vector_16" opacity="0.9" d="M39.9842 16.9062H33.0314V18.896H39.9842V16.9062Z" fill="url(#paint1_linear_849_9175)"/>
<path id="Vector_17" opacity="0.9" d="M71.1627 12.3359H64.96V14.6634H71.1627V12.3359Z" fill="url(#paint2_linear_849_9175)"/>
<path id="Vector_18" d="M29.0538 38.3555H21.3772V40.3465H29.0538V38.3555Z" fill="#808080"/>
<path id="Vector_19" opacity="0.9" d="M39.289 38.3555H31.6124V40.3465H39.289V38.3555Z" fill="url(#paint3_linear_849_9175)"/>
<path id="Vector_20" d="M55.0859 38.3555H42.6542V40.3465H55.0859V38.3555Z" fill="#808080"/>
</g>
</g>
</g>
<defs>
<linearGradient id="paint0_linear_849_9175" x1="47.4932" y1="34.4312" x2="55.086" y2="34.4312" gradientUnits="userSpaceOnUse">
<stop stop-color="#A6B4D9"/>
<stop offset="0.74" stop-color="#4F86F6"/>
</linearGradient>
<linearGradient id="paint1_linear_849_9175" x1="33.0314" y1="17.9005" x2="39.9829" y2="17.9005" gradientUnits="userSpaceOnUse">
<stop stop-color="#A6B4D9"/>
<stop offset="0.74" stop-color="#4F86F6"/>
</linearGradient>
<linearGradient id="paint2_linear_849_9175" x1="64.96" y1="13.499" x2="71.1627" y2="13.499" gradientUnits="userSpaceOnUse">
<stop stop-color="#A6B4D9"/>
<stop offset="0.74" stop-color="#4F86F6"/>
</linearGradient>
<linearGradient id="paint3_linear_849_9175" x1="31.6124" y1="39.351" x2="39.289" y2="39.351" gradientUnits="userSpaceOnUse">
<stop stop-color="#A6B4D9"/>
<stop offset="0.74" stop-color="#4F86F6"/>
</linearGradient>
<clipPath id="clip0_849_9175">
<rect width="103.183" height="66" fill="white"/>
</clipPath>
</defs>
</svg>
