<svg width="72" height="72" viewBox="0 0 72 72" fill="none" xmlns="http://www.w3.org/2000/svg">
<g clip-path="url(#clip0_849_9162)">
<path d="M8.29269 48.5357L0.00138821 71.9577C-0.00751919 71.9814 0.019203 72.0081 0.0429561 71.9992L23.4635 63.7065C23.4635 63.7065 23.4724 63.702 23.4754 63.699L68.8615 18.3129C73.045 14.1294 73.045 7.32114 68.8615 3.13763C64.678 -1.04588 57.8698 -1.04588 53.6863 3.13763L8.30012 48.5238C8.30012 48.5238 8.29418 48.5312 8.29269 48.5357Z" fill="#4A86FF"/>
<path d="M47.3755 9.49455L62.5047 24.6238C62.5181 24.6371 62.5374 24.6371 62.5507 24.6238L68.8616 18.3129C73.0451 14.1294 73.0451 7.32114 68.8616 3.13763C64.6781 -1.04588 57.8699 -1.04588 53.6864 3.13763L47.3755 9.44853C47.3621 9.46189 47.3621 9.48267 47.3755 9.49455Z" fill="#C6D4F7"/>
<path d="M23.4755 63.6547L8.34626 48.5255C8.33884 48.518 8.32696 48.5136 8.31657 48.5166C8.30618 48.5195 8.29727 48.5269 8.29282 48.5373L0.00151028 71.9593C-0.00739712 71.9831 0.0193251 72.0098 0.0430781 72.0009L23.4636 63.7081C23.474 63.7052 23.4814 63.6948 23.4844 63.6844C23.4874 63.674 23.4844 63.6621 23.4755 63.6547Z" fill="#C6D4F7"/>
<path opacity="0.9" d="M49.6359 7.18946L47.3758 9.44956C47.363 9.46232 47.363 9.483 47.3758 9.49575L62.5047 24.6247C62.5175 24.6375 62.5381 24.6375 62.5509 24.6247L64.811 22.3646C64.8238 22.3518 64.8238 22.3312 64.811 22.3184L49.6821 7.18946C49.6693 7.1767 49.6486 7.1767 49.6359 7.18946Z" fill="url(#paint0_linear_849_9162)"/>
<path opacity="0.9" d="M0.00151028 71.9592C-0.00739712 71.983 0.0193251 72.0097 0.0430781 72.0008L10.3712 68.3443C10.3816 68.3413 10.389 68.3324 10.392 68.3205C10.395 68.3102 10.392 68.2983 10.3831 68.2909L3.71144 61.6192C3.70402 61.6118 3.69214 61.6073 3.68175 61.6103C3.67136 61.6133 3.66245 61.6207 3.658 61.6311L0.00151028 71.9592Z" fill="url(#paint1_linear_849_9162)"/>
<g opacity="0.3">
<path d="M59.7414 21.8162L20.6666 60.891C20.6539 60.9037 20.6539 60.9244 20.6666 60.9372L21.5852 61.8557C21.5979 61.8684 21.6186 61.8684 21.6314 61.8557L60.7061 22.7809C60.7189 22.7682 60.7189 22.7475 60.7061 22.7348L59.7876 21.8162C59.7748 21.8035 59.7541 21.8035 59.7414 21.8162Z" fill="white"/>
<path d="M56.2353 18.3123L17.1605 57.3871C17.1478 57.3998 17.1478 57.4205 17.1605 57.4333L18.0791 58.3518C18.0918 58.3645 18.1125 58.3645 18.1253 58.3518L57.2 19.277C57.2128 19.2643 57.2128 19.2436 57.2 19.2309L56.2815 18.3123C56.2687 18.2996 56.248 18.2996 56.2353 18.3123Z" fill="white"/>
<path d="M52.7266 14.8006L13.6519 53.8753C13.6391 53.8881 13.6391 53.9088 13.6519 53.9215L14.5704 54.8401C14.5832 54.8528 14.6038 54.8528 14.6166 54.8401L53.6913 15.7653C53.7041 15.7526 53.7041 15.7319 53.6913 15.7191L52.7728 14.8006C52.7601 14.7878 52.7394 14.7879 52.7266 14.8006Z" fill="white"/>
<path d="M49.2205 11.2967L10.1458 50.3714C10.133 50.3842 10.133 50.4049 10.1458 50.4176L11.0643 51.3362C11.0771 51.3489 11.0977 51.3489 11.1105 51.3362L50.1852 12.2614C50.198 12.2487 50.198 12.228 50.1852 12.2152L49.2667 11.2967C49.2539 11.2839 49.2333 11.2839 49.2205 11.2967Z" fill="white"/>
</g>
</g>
<defs>
<linearGradient id="paint0_linear_849_9162" x1="47.3647" y1="15.9079" x2="64.8188" y2="15.9079" gradientUnits="userSpaceOnUse">
<stop stop-color="#A6B4D9"/>
<stop offset="0.74" stop-color="#4F86F6"/>
</linearGradient>
<linearGradient id="paint1_linear_849_9162" x1="2.57107e-05" y1="66.8063" x2="10.392" y2="66.8063" gradientUnits="userSpaceOnUse">
<stop stop-color="#A6B4D9"/>
<stop offset="0.74" stop-color="#4F86F6"/>
</linearGradient>
<clipPath id="clip0_849_9162">
<rect width="72" height="72.0015" fill="white"/>
</clipPath>
</defs>
</svg>
