<svg
width="9"
height="15"
viewBox="0 0 9 15"
fill="none"
xmlns="http://www.w3.org/2000/svg"
>
<path
d="M8.95833 7.37565C8.95833 7.51671 8.93392 7.64692 8.88509 7.76628C8.83084 7.88563 8.74946 7.99957 8.64095 8.10807L2.30143 14.3092C2.11697 14.4883 1.89453 14.5778 1.63411 14.5778C1.45508 14.5778 1.29503 14.5344 1.15397 14.4476C1.00749 14.3662 0.890842 14.255 0.804036 14.1139C0.717231 13.9729 0.673828 13.8128 0.673828 13.6338C0.673828 13.3788 0.774197 13.1509 0.974935 12.9502L6.68783 7.37565L0.974936 1.80111C0.774198 1.60037 0.673829 1.36979 0.673829 1.10937C0.673829 0.935763 0.717232 0.778428 0.804038 0.637369C0.890843 0.490885 1.00749 0.376952 1.15397 0.295572C1.29503 0.208767 1.45508 0.165364 1.63412 0.165364C1.89453 0.165364 2.11697 0.257595 2.30143 0.442057L8.64095 6.64323C8.74946 6.75174 8.83084 6.86567 8.88509 6.98503C8.93392 7.10438 8.95833 7.23459 8.95833 7.37565Z"
fill="#7F7F7F"
/>
</svg>