<svg width="13" height="14" viewBox="0 0 13 14" fill="none" xmlns="http://www.w3.org/2000/svg">
<path d="M6.55292 13.7257C3.03127 13.7257 0.176403 10.8708 0.176403 7.34918C0.176403 3.82752 3.03127 0.972656 6.55292 0.972656C10.0746 0.972656 12.9294 3.82752 12.9294 7.34918C12.9294 10.8708 10.0746 13.7257 6.55292 13.7257Z" fill="#565656"/>
<path fillRule="evenodd" clipRule="evenodd" d="M9.84131 7.34872C9.84131 7.58014 9.6537 7.76774 9.42228 7.76774L3.68341 7.76774C3.45199 7.76774 3.26438 7.58014 3.26438 7.34872C3.26438 7.11729 3.45199 6.92969 3.68341 6.92969L9.42228 6.92969C9.6537 6.92969 9.84131 7.11729 9.84131 7.34872Z" fill="white"/>
<path fillRule="evenodd" clipRule="evenodd" d="M6.55265 10.6367C6.32123 10.6367 6.13362 10.4491 6.13362 10.2177L6.13362 4.47882C6.13362 4.2474 6.32123 4.05979 6.55265 4.05979C6.78408 4.05979 6.97168 4.2474 6.97168 4.47882L6.97168 10.2177C6.97168 10.4491 6.78407 10.6367 6.55265 10.6367Z" fill="white"/>
</svg>
