<svg width="10" height="18" viewBox="0 0 10 18" fill="none" xmlns="http://www.w3.org/2000/svg">
<path d="M0 8.64258C0 8.47331 0.0292969 8.31706 0.0878906 8.17383C0.152995 8.0306 0.250651 7.89388 0.380859 7.76367L7.98828 0.322266C8.20964 0.107422 8.47656 0 8.78906 0C9.00391 0 9.19596 0.0520833 9.36523 0.15625C9.54102 0.253906 9.68099 0.38737 9.78516 0.556641C9.88932 0.725911 9.94141 0.917969 9.94141 1.13281C9.94141 1.4388 9.82096 1.71224 9.58008 1.95312L2.72461 8.64258L9.58008 15.332C9.82096 15.5729 9.94141 15.8496 9.94141 16.1621C9.94141 16.3704 9.88932 16.5592 9.78516 16.7285C9.68099 16.9043 9.54102 17.041 9.36523 17.1387C9.19596 17.2428 9.00391 17.2949 8.78906 17.2949C8.47656 17.2949 8.20964 17.1842 7.98828 16.9629L0.380859 9.52148C0.250651 9.39128 0.152995 9.25456 0.0878906 9.11133C0.0292969 8.9681 0 8.81185 0 8.64258Z" fill="#848484"/>
</svg>
