<svg width="33" height="33" viewBox="0 0 33 33" fill="none" xmlns="http://www.w3.org/2000/svg">
<path fillRule="evenodd" clipRule="evenodd" d="M15.242 3.81824C15.709 4.31229 16.1286 4.8303 16.4999 5.36484C16.8713 4.8303 17.2908 4.31228 17.7578 3.81824C21.7141 -0.367052 27.5796 -1.24705 30.8588 1.85271C34.138 4.95246 33.5891 10.8582 29.6328 15.0435C29.2812 15.4154 28.9146 15.7613 28.5359 16.0805C28.9146 16.3998 29.2812 16.7457 29.6328 17.1176C33.5891 21.3029 34.138 27.2086 30.8588 30.3084C27.5796 33.4081 21.7141 32.5281 17.7578 28.3429C17.2908 27.8488 16.8713 27.3308 16.4999 26.7963C16.1286 27.3308 15.709 27.8488 15.242 28.3429C11.2857 32.5281 5.42024 33.4081 2.14105 30.3084C-1.13815 27.2086 -0.589278 21.3029 3.36699 17.1176C3.7186 16.7457 4.08529 16.3998 4.4639 16.0805C4.08529 15.7613 3.7186 15.4154 3.36699 15.0435C-0.589278 10.8582 -1.13815 4.95246 2.14105 1.85271C5.42024 -1.24705 11.2858 -0.367052 15.242 3.81824Z" fill="#E9EFFF"/>
</svg>
