<svg width="21" height="26" viewBox="0 0 21 26" fill="none" xmlns="http://www.w3.org/2000/svg">
<path id="Symbol" d="M5.00954 5.91421V3.51738C5.00954 2.51934 5.2687 1.76694 5.78702 1.26016C6.31069 0.753387 7.08282 0.5 8.10344 0.5H12.1912C12.6721 0.5 13.105 0.567225 13.4897 0.701675C13.8744 0.830955 14.2351 1.06107 14.5718 1.39203L20.0782 6.79072C20.4309 7.13719 20.6714 7.49659 20.7996 7.86891C20.9332 8.24123 21 8.69371 21 9.22634V17.5804C21 18.5784 20.7408 19.3308 20.2225 19.8376C19.7095 20.3443 18.9401 20.5977 17.9141 20.5977H15.6698V19.2248H17.842C18.4137 19.2248 18.8466 19.08 19.1405 18.7904C19.4344 18.506 19.5813 18.0949 19.5813 17.5571V8.82299H14.4836C13.9279 8.82299 13.5111 8.69371 13.2332 8.43515C12.9553 8.17142 12.8164 7.7629 12.8164 7.20959V1.87294H8.17557C7.59847 1.87294 7.16298 2.02032 6.86908 2.31508C6.57519 2.60466 6.42824 3.01577 6.42824 3.5484V5.91421H5.00954ZM14.1069 7.02343C14.1069 7.21993 14.1496 7.36214 14.2351 7.45005C14.326 7.53279 14.4729 7.57415 14.676 7.57415H19.1805L14.1069 2.60208V7.02343ZM0 22.4826V8.41964C0 7.42161 0.25916 6.6692 0.777481 6.16243C1.2958 5.65565 2.06527 5.40227 3.08588 5.40227H6.81298C7.16565 5.40227 7.4729 5.42554 7.73473 5.47208C8.00191 5.51862 8.24771 5.60394 8.47214 5.72805C8.69656 5.85216 8.92634 6.03056 9.16145 6.26326L15.1008 12.0886C15.3466 12.3316 15.5336 12.5617 15.6618 12.7789C15.7901 12.9961 15.8756 13.2392 15.9183 13.5081C15.9664 13.7718 15.9905 14.095 15.9905 14.4777V22.4826C15.9905 23.4807 15.7313 24.2331 15.213 24.7398C14.7 25.2466 13.9305 25.5 12.9046 25.5H3.08588C2.05992 25.5 1.28779 25.2466 0.769466 24.7398C0.256489 24.2382 0 23.4858 0 22.4826ZM1.4187 22.4594C1.4187 22.9972 1.56565 23.4083 1.85954 23.6927C2.15344 23.9823 2.58626 24.1271 3.15802 24.1271H12.8244C13.4015 24.1271 13.837 23.9823 14.1309 23.6927C14.4248 23.4083 14.5718 22.9972 14.5718 22.4594V14.4777H8.6084C8.00992 14.4777 7.5584 14.3329 7.25382 14.0433C6.94924 13.7537 6.79695 13.3141 6.79695 12.7246V6.77521H3.16603C2.58893 6.77521 2.15344 6.92259 1.85954 7.21734C1.56565 7.50693 1.4187 7.91804 1.4187 8.45067V22.4594ZM8.7687 13.1823H14.2912L8.1355 7.14753V12.5695C8.1355 12.7919 8.18359 12.9496 8.27977 13.0427C8.37595 13.1357 8.53893 13.1823 8.7687 13.1823Z" fill="#565656"/>
</svg>
