<svg width="13" height="8" viewBox="0 0 13 8" fill="none" xmlns="http://www.w3.org/2000/svg">
<path d="M6.07402 7.05439C5.95787 7.05439 5.85066 7.03428 5.75238 6.99408C5.65409 6.94941 5.56028 6.8824 5.47094 6.79305L0.364809 1.57301C0.217388 1.42112 0.143678 1.23796 0.143678 1.02353C0.143678 0.876109 0.179416 0.744324 0.250893 0.628174C0.317902 0.507557 0.409482 0.41151 0.525632 0.340033C0.641782 0.268556 0.773567 0.232817 0.920988 0.232817C1.13095 0.232817 1.31858 0.315462 1.48387 0.480753L6.07402 5.18482L10.6642 0.480752C10.8295 0.315462 11.0193 0.232817 11.2338 0.232817C11.3767 0.232817 11.5063 0.268555 11.6224 0.340032C11.743 0.411509 11.8368 0.507556 11.9039 0.628173C11.9753 0.744323 12.0111 0.876108 12.0111 1.02353C12.0111 1.23796 11.9351 1.42112 11.7832 1.57301L6.67711 6.79305C6.58776 6.8824 6.49395 6.94941 6.39567 6.99408C6.29739 7.03428 6.19017 7.05439 6.07402 7.05439Z" fill="#1F1F1F"/>
</svg>
