<svg width="200" height="200" viewBox="0 0 200 200" fill="none" xmlns="http://www.w3.org/2000/svg">
<rect width="199.877" height="199.877" fill="white"/>
<path fillRule="evenodd" clipRule="evenodd" d="M121.576 72.0095C122.672 71.2369 123.735 70.3641 124.748 69.3925C133.331 61.163 135.136 48.9622 128.779 42.1411C122.422 35.32 110.311 36.4617 101.728 44.6912C100.965 45.4222 100.256 46.1846 99.6017 46.9718C98.9474 46.1849 98.2386 45.4228 97.4764 44.692C88.8934 36.4625 76.7822 35.3208 70.4253 42.1419C64.0684 48.9629 65.8731 61.1638 74.4561 69.3933C75.4694 70.3648 76.5319 71.2376 77.6282 72.0101C76.5318 72.7827 75.4693 73.6555 74.456 74.6271C65.8729 82.8565 64.0682 95.0574 70.4251 101.878C76.782 108.7 88.8932 107.558 97.4763 99.3284C98.2387 98.5973 98.9477 97.8349 99.6022 97.0478C100.256 97.8347 100.965 98.5968 101.727 99.3276C110.31 107.557 122.422 108.699 128.779 101.878C135.135 95.0566 133.331 82.8557 124.748 74.6263C123.734 73.6547 122.672 72.782 121.576 72.0095ZM29.0171 90.8496L31.5947 92.3287C40.3846 97.3725 53.8649 106.348 66.0076 117.05C76.5598 126.351 86.9099 137.646 91.6513 149.347H110.901C112.24 145.542 114.295 141.485 116.767 137.445C120.441 131.444 125.285 125.083 130.836 119.06C141.79 107.177 156.227 95.8294 170.718 91.7421L173.575 90.9361L176.918 102.962L174.056 103.77C162.743 106.961 150.193 116.408 139.912 127.562C134.846 133.058 130.511 138.776 127.311 144.004C124.038 149.351 122.223 153.746 121.722 156.659L120.831 161.837H82.5035L81.258 157.236C78.6812 147.718 69.5261 136.741 57.8527 126.453C46.4385 116.392 33.6635 107.887 25.4658 103.183L22.8816 101.7L29.0171 90.8496Z" fill="url(#paint0_linear_598_6290)"/>
<defs>
<linearGradient id="paint0_linear_598_6290" x1="54.5384" y1="35.6686" x2="155.485" y2="163.536" gradientUnits="userSpaceOnUse">
<stop offset="0.153105" stopColor="#87B3FF"/>
<stop offset="1" stopColor="#3184FF"/>
</linearGradient>
</defs>
</svg>