<svg width="32" height="14" viewBox="0 0 32 14" fill="none" xmlns="http://www.w3.org/2000/svg">
<path d="M8.20959 13.5C7.33959 13.5 6.52233 13.3315 5.75779 12.9944C4.99852 12.6573 4.32888 12.1924 3.74889 11.5997C3.16889 11.0017 2.71544 10.3112 2.38853 9.52823C2.06162 8.73986 1.89817 7.89711 1.89817 7C1.89817 6.10289 2.06162 5.26286 2.38853 4.47992C2.71544 3.69155 3.16889 3.00105 3.74889 2.40841C4.32888 1.81033 4.99852 1.34274 5.75779 1.00565C6.52233 0.668549 7.33959 0.5 8.20959 0.5C9.07959 0.5 9.89422 0.668549 10.6535 1.00565C11.418 1.34274 12.0877 1.81033 12.6624 2.40841C13.2424 3.00105 13.6932 3.69155 14.0148 4.47992C14.3417 5.26286 14.5052 6.10289 14.5052 7C14.5052 7.89711 14.3417 8.73986 14.0148 9.52823C13.6932 10.3112 13.2424 11.0017 12.6624 11.5997C12.0877 12.1924 11.418 12.6573 10.6535 12.9944C9.89422 13.3315 9.07959 13.5 8.20959 13.5ZM8.20959 11.9912C8.87395 11.9912 9.49876 11.8607 10.084 11.5997C10.6693 11.3388 11.1834 10.9799 11.6263 10.5232C12.0692 10.0665 12.4146 9.53639 12.6624 8.93287C12.9155 8.32936 13.042 7.68507 13.042 7C13.042 6.31493 12.9155 5.67064 12.6624 5.06713C12.4146 4.46361 12.0692 3.9335 11.6263 3.47679C11.1834 3.02008 10.6693 2.66395 10.084 2.40841C9.49876 2.14743 8.87395 2.01694 8.20959 2.01694C7.53996 2.01694 6.91251 2.14743 6.32724 2.40841C5.74197 2.66395 5.22788 3.02008 4.78497 3.47679C4.34207 3.9335 3.99407 4.46361 3.74098 5.06713C3.49316 5.6652 3.36925 6.30949 3.36925 7C3.36925 7.69051 3.49316 8.33752 3.74098 8.94103C3.99407 9.53911 4.34207 10.0692 4.78497 10.5314C5.22788 10.9881 5.74197 11.3469 6.32724 11.6079C6.91251 11.8634 7.53996 11.9912 8.20959 11.9912ZM23.7983 13.5C22.9231 13.5 22.1031 13.3315 21.3386 12.9944C20.5793 12.6573 19.9097 12.1924 19.3297 11.5997C18.755 11.0017 18.3042 10.3112 17.9773 9.52823C17.6504 8.73986 17.4869 7.89711 17.4869 7C17.4869 6.10289 17.6504 5.26286 17.9773 4.47992C18.3042 3.69155 18.755 3.00105 19.3297 2.40841C19.9097 1.81033 20.5793 1.34274 21.3386 1.00565C22.1031 0.668549 22.9231 0.5 23.7983 0.5C24.663 0.5 25.475 0.668549 26.2343 1.00565C26.9988 1.34274 27.6685 1.81033 28.2432 2.40841C28.8232 3.00105 29.2767 3.69155 29.6036 4.47992C29.9305 5.26286 30.0939 6.10289 30.0939 7C30.0939 7.89711 29.9305 8.73986 29.6036 9.52823C29.2767 10.3112 28.8232 11.0017 28.2432 11.5997C27.6685 12.1924 26.9988 12.6573 26.2343 12.9944C25.475 13.3315 24.663 13.5 23.7983 13.5ZM23.7983 11.9912C24.4627 11.9912 25.0875 11.8634 25.6728 11.6079C26.258 11.3469 26.7721 10.9881 27.215 10.5314C27.6579 10.0692 28.0033 9.53911 28.2511 8.94103C28.5042 8.33752 28.6307 7.69051 28.6307 7C28.6307 6.30949 28.5042 5.6652 28.2511 5.06713C28.0033 4.46361 27.6579 3.9335 27.215 3.47679C26.7721 3.02008 26.258 2.66395 25.6728 2.40841C25.0875 2.14743 24.4627 2.01694 23.7983 2.01694C23.1287 2.01694 22.5012 2.14743 21.916 2.40841C21.3307 2.66395 20.8166 3.02008 20.3737 3.47679C19.9308 3.9335 19.5828 4.46361 19.3297 5.06713C19.0819 5.67064 18.958 6.31493 18.958 7C18.958 7.68507 19.0819 8.32936 19.3297 8.93287C19.5828 9.53639 19.9308 10.0665 20.3737 10.5232C20.8166 10.9799 21.3307 11.3388 21.916 11.5997C22.5012 11.8607 23.1287 11.9912 23.7983 11.9912ZM2.49135 5.80113V7.62798H0.711814C0.237271 7.62798 0 7.38603 0 6.90213V6.52698C0 6.04308 0.237271 5.80113 0.711814 5.80113H2.49135ZM29.5086 7.62798V5.80113H31.2882C31.7627 5.80113 32 6.04308 32 6.52698V6.90213C32 7.38603 31.7627 7.62798 31.2882 7.62798H29.5086ZM14.086 7.23651V5.52384C14.376 5.38248 14.695 5.28189 15.043 5.22208C15.391 5.15684 15.71 5.12422 16 5.12422C16.29 5.12422 16.609 5.15684 16.957 5.22208C17.305 5.28189 17.624 5.38248 17.914 5.52384V7.23651C17.6451 7.06796 17.3393 6.94291 16.9965 6.86136C16.6591 6.7798 16.3269 6.73902 16 6.73902C15.6731 6.73902 15.3383 6.7798 14.9956 6.86136C14.6581 6.94291 14.3549 7.06796 14.086 7.23651Z" fill="#565656"/>
</svg>
