<svg
    className="link-icon"
    width="27"
    height="27"
    viewBox="0 0 27 27"
    fill="none"
    xmlns="http://www.w3.org/2000/svg"
>
    <g id="Link">
        <path
            id="Vector"
            d="M13.6238 17.3138L9.25881 21.6788C8.73033 22.1888 8.02453 22.4739 7.29006 22.4739C6.55559 22.4739 5.84979 22.1888 5.32131 21.6788C5.06212 21.4206 4.85645 21.1138 4.71612 20.7759C4.57579 20.4381 4.50355 20.0758 4.50355 19.71C4.50355 19.3442 4.57579 18.9819 4.71612 18.6441C4.85645 18.3062 5.06212 17.9994 5.32131 17.7413L9.68631 13.3763C9.89815 13.1644 10.0172 12.8771 10.0172 12.5775C10.0172 12.2779 9.89815 11.9906 9.68631 11.7788C9.47447 11.5669 9.18715 11.4479 8.88756 11.4479C8.58797 11.4479 8.30065 11.5669 8.08881 11.7788L3.72381 16.155C2.84446 17.1122 2.36888 18.372 2.39639 19.6715C2.4239 20.971 2.95238 22.2096 3.87145 23.1286C4.79052 24.0477 6.02912 24.5762 7.32859 24.6037C8.62806 24.6312 9.88792 24.1556 10.8451 23.2763L15.2213 18.9113C15.4332 18.6994 15.5522 18.4121 15.5522 18.1125C15.5522 17.8129 15.4332 17.5256 15.2213 17.3138C15.0095 17.1019 14.7221 16.9829 14.4226 16.9829C14.123 16.9829 13.8357 17.1019 13.6238 17.3138ZM23.2763 3.72376C22.3299 2.78327 21.0499 2.2554 19.7157 2.2554C18.3815 2.2554 17.1014 2.78327 16.1551 3.72376L11.7788 8.08877C11.6739 8.19366 11.5907 8.31818 11.5339 8.45523C11.4772 8.59228 11.448 8.73917 11.448 8.88752C11.448 9.03586 11.4772 9.18275 11.5339 9.3198C11.5907 9.45684 11.6739 9.58137 11.7788 9.68626C11.8837 9.79116 12.0082 9.87436 12.1453 9.93113C12.2823 9.9879 12.4292 10.0171 12.5776 10.0171C12.7259 10.0171 12.8728 9.9879 13.0098 9.93113C13.1469 9.87436 13.2714 9.79116 13.3763 9.68626L17.7413 5.32126C18.2698 4.81122 18.9756 4.52618 19.7101 4.52618C20.4445 4.52618 21.1503 4.81122 21.6788 5.32126C21.938 5.57944 22.1437 5.88625 22.284 6.2241C22.4243 6.56195 22.4966 6.92418 22.4966 7.29002C22.4966 7.65585 22.4243 8.01808 22.284 8.35593C22.1437 8.69378 21.938 9.00059 21.6788 9.25876L17.3138 13.6238C17.2084 13.7283 17.1247 13.8528 17.0676 13.9899C17.0104 14.127 16.981 14.274 16.981 14.4225C16.981 14.571 17.0104 14.7181 17.0676 14.8552C17.1247 14.9923 17.2084 15.1167 17.3138 15.2213C17.4184 15.3267 17.5428 15.4104 17.6799 15.4675C17.817 15.5246 17.964 15.554 18.1126 15.554C18.2611 15.554 18.4081 15.5246 18.5452 15.4675C18.6823 15.4104 18.8067 15.3267 18.9113 15.2213L23.2763 10.845C24.2168 9.89864 24.7447 8.61861 24.7447 7.28439C24.7447 5.95017 24.2168 4.67014 23.2763 3.72376ZM9.93381 17.0663C10.0389 17.1705 10.1636 17.253 10.3007 17.309C10.4377 17.365 10.5845 17.3934 10.7326 17.3925C10.8806 17.3934 11.0274 17.365 11.1645 17.309C11.3015 17.253 11.4262 17.1705 11.5313 17.0663L17.0663 11.5313C17.2782 11.3194 17.3972 11.0321 17.3972 10.7325C17.3972 10.4329 17.2782 10.1456 17.0663 9.93376C16.8545 9.72192 16.5672 9.60291 16.2676 9.60291C15.968 9.60291 15.6807 9.72192 15.4688 9.93376L9.93381 15.4688C9.82837 15.5733 9.74467 15.6978 9.68756 15.8349C9.63044 15.972 9.60104 16.119 9.60104 16.2675C9.60104 16.416 9.63044 16.5631 9.68756 16.7002C9.74467 16.8373 9.82837 16.9617 9.93381 17.0663Z"
            fill="#565656"
        />
    </g>
</svg>