<svg width="100%" height="100%" viewBox="0 0 393 124" fill="none" xmlns="http://www.w3.org/2000/svg" >
    <path fill-rule="evenodd" clip-rule="evenodd" d="M81.915 47.196L69.415 56.5297C69.2867 56.6257 69.1822 56.7518 69.11 56.8979C69.0379 57.0439 69.0002 57.2056 69 57.3697V73.9629C69 74.238 69.1054 74.5018 69.2929 74.6962C69.4804 74.8907 69.7348 75 70 75H95C95.2652 75 95.5196 74.8907 95.7071 74.6962C95.8946 74.5018 96 74.238 96 73.9629V57.3697C95.9998 57.2056 95.9621 57.0439 95.89 56.8979C95.8178 56.7518 95.7133 56.6257 95.585 56.5297L83.085 47.196C82.9147 47.0686 82.71 47 82.5 47C82.29 47 82.0853 47.0686 81.915 47.196ZM85 72.9258V63.5922H80V72.9258H85ZM94 72.9258V57.8882L82.5 49.3116L71 57.8882V72.9258H78V62.5551C78 62.28 78.1054 62.0162 78.2929 61.8218C78.4804 61.6273 78.7348 61.518 79 61.518H86C86.2652 61.518 86.5196 61.6273 86.7071 61.8218C86.8946 62.0162 87 62.28 87 62.5551V72.9258H94Z" fill="#3184FF" />
    <path d="M79.5934 88.272H85.3534V90.711H79.5934V88.272ZM84.1834 89.163H80.7724V89.829H84.1834V89.163ZM79.0804 83.052H85.8664V83.952H79.0804V83.052ZM82.4914 84.159C84.2824 84.159 85.2814 84.564 85.2814 85.347C85.2814 86.13 84.2824 86.535 82.4914 86.535C80.7004 86.535 79.7014 86.13 79.7014 85.347C79.7014 84.564 80.7004 84.159 82.4914 84.159ZM82.4914 84.96C81.4564 84.96 80.9794 85.068 80.9794 85.347C80.9794 85.617 81.4564 85.734 82.4914 85.734C83.5264 85.734 83.9944 85.617 83.9944 85.347C83.9944 85.068 83.5264 84.96 82.4914 84.96ZM81.8884 82.404H83.0854V83.691H81.8884V82.404ZM78.7204 86.931H86.2534V87.849H78.7204V86.931ZM81.8884 86.247H83.0854V87.417H81.8884V86.247Z" fill="#3184FF" />
</svg>