<svg width="100%" height="100%" viewBox="0 0 393 124" fill="none" xmlns="http://www.w3.org/2000/svg" >
    <path d="M319.138 74.3101H296.862C294.923 74.3101 293.345 72.7321 293.345 70.7929V53.2067C293.345 51.2675 294.923 49.6895 296.862 49.6895H302.207C303.723 49.6895 305.064 50.6555 305.544 52.0941L305.648 52.4059C305.725 52.6392 305.874 52.8421 306.074 52.9858C306.273 53.1296 306.513 53.2069 306.758 53.2067H319.138C321.077 53.2067 322.655 54.7848 322.655 56.7239V70.7929C322.655 72.7321 321.077 74.3101 319.138 74.3101ZM296.862 52.0343C296.215 52.0343 295.69 52.5607 295.69 53.2067V70.7929C295.69 71.4389 296.215 71.9653 296.862 71.9653H319.138C319.785 71.9653 320.31 71.4389 320.31 70.7929V56.7239C320.31 56.0779 319.785 55.5515 319.138 55.5515H306.758C306.02 55.5522 305.3 55.3203 304.701 54.8886C304.102 54.457 303.655 53.8475 303.422 53.1469L303.317 52.835C303.24 52.6018 303.091 52.3989 302.892 52.2551C302.692 52.1114 302.453 52.0341 302.207 52.0343H296.862Z" fill="#A7A7A7" />
    <path d="M319.138 74.3103H296.862C294.923 74.3103 293.345 72.7322 293.345 70.793V59.0689C293.345 58.758 293.468 58.4597 293.688 58.2399C293.908 58.02 294.206 57.8965 294.517 57.8965H321.483C321.794 57.8965 322.092 58.02 322.312 58.2399C322.532 58.4597 322.655 58.758 322.655 59.0689V70.793C322.655 72.7322 321.077 74.3103 319.138 74.3103ZM295.69 60.2413V70.793C295.69 71.439 296.215 71.9655 296.862 71.9655H319.138C319.785 71.9655 320.31 71.439 320.31 70.793V60.2413H295.69Z" fill="#A7A7A7" />
    <path d="M300.238 82.656H306.448V83.547H300.238V82.656ZM300.301 84.609H306.385V85.5H300.301V84.609ZM301.3 83.007H302.497V85.185H301.3V83.007ZM304.189 83.007H305.386V85.185H304.189V83.007ZM299.581 86.004H307.114V86.931H299.581V86.004ZM302.74 85.257H303.937V86.427H302.74V85.257ZM300.445 87.354H306.205V89.424H301.633V90.207H300.454V88.623H305.026V88.209H300.445V87.354ZM300.454 89.874H306.421V90.747H300.454V89.874ZM308.256 87.831H308.931C310.407 87.831 311.37 87.795 312.45 87.597L312.567 88.56C311.451 88.767 310.452 88.812 308.931 88.812H308.256V87.831ZM308.256 83.205H312.027V84.159H309.453V88.2H308.256V83.205ZM313.665 82.467H314.862V90.828H313.665V82.467ZM311.622 85.338H314.169V86.31H311.622V85.338Z" fill="#A7A7A7" />
</svg>