<svg width="10" height="17" viewBox="0 0 10 17" fill="none" xmlns="http://www.w3.org/2000/svg">
<path d="M9.55339 8.39925C9.55339 8.55772 9.52292 8.70399 9.46197 8.83808C9.40102 8.97217 9.3096 9.10016 9.1877 9.22206L2.06584 16.1885C1.86471 16.3957 1.61482 16.4993 1.31617 16.4993C1.12113 16.4993 0.941334 16.4506 0.776773 16.3531C0.612211 16.2616 0.481171 16.1336 0.383653 15.9691C0.29223 15.8106 0.246519 15.6339 0.246519 15.4388C0.246519 15.1463 0.356226 14.8872 0.575642 14.6617L6.99354 8.39925L0.575642 2.13677C0.356226 1.91126 0.246519 1.65527 0.246519 1.36881C0.246519 1.16768 0.29223 0.987884 0.383653 0.829418C0.481171 0.670951 0.612211 0.546006 0.776773 0.454583C0.941334 0.357065 1.12113 0.308306 1.31617 0.308306C1.61482 0.308306 1.86471 0.408871 2.06584 0.610002L9.1877 7.57644C9.3096 7.69834 9.40102 7.82633 9.46197 7.96042C9.52292 8.09451 9.55339 8.24078 9.55339 8.39925Z" fill="#1F1F1F"/>
</svg>
