<svg
xmlns="http://www.w3.org/2000/svg"
width="39"
height="39"
viewBox="0 0 39 39"
fill="none"
>
    <path
    d="M30.875 3.25H8.125C6.83207 3.25 5.59209 3.76361 4.67785 4.67785C3.76361 5.59209 3.25 6.83207 3.25 8.125V30.875C3.25 32.1679 3.76361 33.4079 4.67785 34.3221C5.59209 35.2364 6.83207 35.75 8.125 35.75H30.875C31.1423 35.7463 31.4087 35.7191 31.6712 35.6687L32.1587 35.555H32.2725H32.3537L32.955 35.3275L33.1662 35.2137C33.3287 35.1162 33.5075 35.035 33.67 34.9212C33.887 34.7616 34.0933 34.5879 34.2875 34.4012L34.4012 34.255C34.5608 34.0933 34.7075 33.9195 34.84 33.735L34.9862 33.5237C35.0997 33.3428 35.1976 33.1526 35.2787 32.955C35.3233 32.877 35.3614 32.7955 35.3925 32.7112C35.4737 32.5162 35.5225 32.305 35.5875 32.0937V31.85C35.6796 31.5325 35.7342 31.2052 35.75 30.875V8.125C35.75 6.83207 35.2364 5.59209 34.3221 4.67785C33.4079 3.76361 32.1679 3.25 30.875 3.25ZM8.125 32.5C7.69402 32.5 7.2807 32.3288 6.97595 32.024C6.6712 31.7193 6.5 31.306 6.5 30.875V23.8712L11.8462 18.5087C11.9973 18.3564 12.177 18.2355 12.3751 18.153C12.5731 18.0705 12.7855 18.0281 13 18.0281C13.2145 18.0281 13.4269 18.0705 13.6249 18.153C13.823 18.2355 14.0027 18.3564 14.1537 18.5087L28.1287 32.5H8.125ZM32.5 30.875C32.4985 31.0753 32.4599 31.2737 32.3862 31.46C32.3491 31.5392 32.3056 31.6153 32.2562 31.6875C32.2128 31.7563 32.1639 31.8215 32.11 31.8825L23.4162 23.1887L24.8462 21.7587C24.9973 21.6064 25.177 21.4855 25.3751 21.403C25.5731 21.3205 25.7855 21.2781 26 21.2781C26.2145 21.2781 26.4269 21.3205 26.6249 21.403C26.823 21.4855 27.0027 21.6064 27.1537 21.7587L32.5 27.1212V30.875ZM32.5 22.5225L29.445 19.5C28.515 18.6176 27.282 18.1257 26 18.1257C24.718 18.1257 23.485 18.6176 22.555 19.5L21.125 20.93L16.445 16.25C15.515 15.3676 14.282 14.8757 13 14.8757C11.718 14.8757 10.485 15.3676 9.555 16.25L6.5 19.2725V8.125C6.5 7.69402 6.6712 7.2807 6.97595 6.97595C7.2807 6.6712 7.69402 6.5 8.125 6.5H30.875C31.306 6.5 31.7193 6.6712 32.024 6.97595C32.3288 7.2807 32.5 7.69402 32.5 8.125V22.5225ZM21.9375 9.75C21.4554 9.75 20.9841 9.89296 20.5833 10.1608C20.1825 10.4286 19.87 10.8093 19.6855 11.2547C19.5011 11.7001 19.4528 12.1902 19.5468 12.663C19.6409 13.1359 19.873 13.5702 20.2139 13.9111C20.5548 14.252 20.9891 14.4841 21.462 14.5782C21.9348 14.6722 22.4249 14.6239 22.8703 14.4395C23.3157 14.255 23.6964 13.9425 23.9642 13.5417C24.232 13.1409 24.375 12.6696 24.375 12.1875C24.375 11.541 24.1182 10.921 23.6611 10.4639C23.204 10.0068 22.584 9.75 21.9375 9.75Z"
    fill="#A6A6A6"
    />
</svg>