<svg width="30" height="30" viewBox="0 0 30 30" fill="none" xmlns="http://www.w3.org/2000/svg">
<rect width="30" height="30" rx="5.88235" fill="#F4F5F7"/>
<path d="M8.82364 20.1156H9.00011L10.9413 19.7626C11.8236 19.5862 12.6178 19.145 13.2354 18.5273L21.2648 10.5862C21.7942 10.145 22.0589 9.43911 22.0589 8.73323C22.0589 8.02734 21.7942 7.4097 21.2648 6.88028C20.2942 5.9097 18.6178 5.9097 17.5589 6.88028L9.52953 14.7332C8.91188 15.3509 8.4707 16.145 8.29423 17.0273L7.94129 19.0568C7.85306 19.3215 7.94129 19.6744 8.206 19.8509C8.38247 20.0273 8.55894 20.1156 8.82364 20.1156ZM18.7942 8.20381C18.9707 8.02734 19.2354 7.93911 19.4119 7.93911C19.6766 7.93911 19.8531 8.02734 20.0295 8.20381C20.206 8.38029 20.2942 8.55676 20.2942 8.73323C20.2942 8.82146 20.2942 9.08617 20.0295 9.35087L19.6766 9.70381L18.4413 8.55676L18.7942 8.20381ZM10.0589 17.4685C10.1472 16.9391 10.4119 16.4979 10.8531 16.0568L17.206 9.79205L18.4413 10.9391L12.0883 17.2038C11.7354 17.5568 11.206 17.8215 10.6766 17.9097L9.9707 18.0862L10.0589 17.4685ZM21.1766 21.1744H8.82364C8.29423 21.1744 7.94129 21.5273 7.94129 22.0568C7.94129 22.5862 8.29423 22.9391 8.82364 22.9391H21.1766C21.706 22.9391 22.0589 22.5862 22.0589 22.0568C22.0589 21.5273 21.706 21.1744 21.1766 21.1744Z" fill="#848484"/>
</svg>
