<svg width="11" height="17" viewBox="0 0 11 17" fill="none" xmlns="http://www.w3.org/2000/svg">
<path d="M0.79961 8.39925C0.79961 8.24078 0.827037 8.09451 0.881891 7.96042C0.94284 7.82633 1.03426 7.69834 1.15616 7.57644L8.27802 0.610002C8.48525 0.408871 8.73514 0.308306 9.02769 0.308306C9.22882 0.308306 9.40862 0.357065 9.56709 0.454583C9.73165 0.546006 9.86269 0.670951 9.96021 0.829418C10.0577 0.987884 10.1065 1.16768 10.1065 1.36881C10.1065 1.65527 9.99373 1.91126 9.76822 2.13677L3.35032 8.39925L9.76822 14.6617C9.99373 14.8872 10.1065 15.1463 10.1065 15.4388C10.1065 15.6339 10.0577 15.8106 9.96021 15.9691C9.86269 16.1336 9.73165 16.2616 9.56709 16.3531C9.40862 16.4506 9.22882 16.4993 9.02769 16.4993C8.73514 16.4993 8.48525 16.3957 8.27802 16.1885L1.15616 9.22206C1.03426 9.10016 0.94284 8.97217 0.881891 8.83808C0.827037 8.70399 0.79961 8.55772 0.79961 8.39925Z" fill="#1F1F1F"/>
</svg>

