<svg width="116" height="94" viewBox="0 0 116 94" fill="none" xmlns="http://www.w3.org/2000/svg">
<g clip-path="url(#clip0_303_4790)">
<path opacity="0.92" d="M105.177 32.5305L102.374 31.8234C101.5 31.6048 100.883 30.8206 100.879 29.9207L100.845 25.3739C100.583 24.174 99.8033 23.2826 98.7835 23.0255L72.2773 16.3617C71.3346 16.126 70.3363 16.8674 70.0449 18.0245L69.1836 21.4442C68.918 22.5027 67.8425 23.1455 66.7841 22.8798L31.1683 13.9233C27.9889 13.122 24.7624 15.0547 23.9654 18.2344L10.3267 72.5003L95.8441 94.0001L109.483 39.7342C110.284 36.5545 110.511 33.8718 105.172 32.5305H105.177Z" fill="url(#paint0_linear_303_4790)"/>
<path d="M95.9125 93.9996L10.395 72.4998L14.0114 17.4883L97.8792 38.5767L95.9125 93.9996Z" fill="white"/>
<path opacity="0.92" d="M95.1797 93.7677L9.66224 72.2636L3.71056 26.7442C3.53916 23.3116 3.97622 20.0247 10.2493 21.6017L85.0374 40.406C87.317 40.9803 88.9623 42.9387 89.0737 45.2142L95.1754 93.7634L95.1797 93.7677Z" fill="url(#paint1_linear_303_4790)"/>
<g opacity="0.71">
<path d="M21.416 53.3922L20.7218 53.2165L21.176 56.512L18.5066 55.8392L17.084 45.5371L21.596 46.6727C22.1444 46.8099 22.6415 47.0027 23.0871 47.2513C23.5327 47.4998 23.9269 47.7955 24.2611 48.1469C24.5954 48.4983 24.8696 48.8926 25.0838 49.3382C25.2938 49.7839 25.4395 50.2725 25.5123 50.8081C25.6494 51.8152 25.4738 52.518 24.9724 52.9251C24.4754 53.3279 23.6441 53.3879 22.4829 53.0922L22.5129 53.3108L24.6982 53.8593L26.6992 57.9005L23.7598 57.1591L22.2515 54.095C22.153 53.8979 22.0287 53.7436 21.883 53.6279C21.7374 53.5122 21.5788 53.4308 21.4117 53.3879L21.416 53.3922ZM20.3362 50.4053L22.4786 50.9453C22.56 50.9667 22.6243 50.9667 22.68 50.9453C22.7357 50.9238 22.7786 50.8896 22.8129 50.8424C22.8471 50.7953 22.8686 50.7353 22.8814 50.6667C22.8943 50.5982 22.8943 50.5253 22.8814 50.4482C22.8686 50.371 22.8471 50.2896 22.8171 50.2082C22.7829 50.1268 22.7443 50.0496 22.6929 49.9811C22.6415 49.9125 22.5858 49.8525 22.5215 49.8011C22.4572 49.7496 22.3844 49.7154 22.303 49.6982L20.1605 49.1583L20.3319 50.4096L20.3362 50.4053Z" fill="url(#paint2_linear_303_4790)"/>
<path d="M34.3651 59.8338L27.5007 58.1068L26.0781 47.8047L32.9425 49.5317L33.3495 52.4758L29.1547 51.4216L29.2575 52.1586L33.4524 53.2128L33.8594 56.1569L29.6646 55.1027L29.7674 55.8398L33.9623 56.894L34.3693 59.8381L34.3651 59.8338Z" fill="url(#paint3_linear_303_4790)"/>
<path d="M37.9729 60.7425L35.3034 60.0697L33.8809 49.7676L36.5503 50.4404L37.9729 60.7425Z" fill="url(#paint4_linear_303_4790)"/>
<path d="M43.3117 54.8973L42.9175 52.0432L45.587 52.716L47.0095 63.0181L44.0701 62.2767L40.0209 55.043L39.8538 55.1073L39.9738 55.3215C40.1152 55.5744 40.2523 55.8486 40.3808 56.1486C40.5094 56.4443 40.6294 56.7486 40.7365 57.0528C40.8436 57.3571 40.9336 57.6613 41.0107 57.9613C41.0878 58.2613 41.1435 58.5356 41.1778 58.7927L41.572 61.6468L38.9026 60.9739L37.48 50.6719L40.4194 51.4132L44.4686 58.647L44.6357 58.5827L44.5157 58.3684C44.3743 58.1156 44.2372 57.8413 44.1087 57.5414C43.9801 57.2457 43.8602 56.9414 43.753 56.6371C43.6459 56.3329 43.5559 56.0286 43.4788 55.7286C43.4017 55.4287 43.346 55.1544 43.3117 54.8973Z" fill="url(#paint5_linear_303_4790)"/>
<path d="M54.9066 58.8479C54.9923 59.4821 54.9837 60.0178 54.8766 60.4635C54.7695 60.9091 54.5895 61.2563 54.3367 61.5134C54.0839 61.7705 53.7625 61.9291 53.3769 61.9976C52.9913 62.0662 52.5628 62.0405 52.0957 61.9248C51.5258 61.7834 51.0202 61.5391 50.5832 61.1963C50.1461 60.8534 49.7562 60.442 49.4134 59.9664L49.2806 60.0692L50.2789 61.4705L50.6174 63.9261L47.948 63.2533L46.5254 52.9512L50.6303 53.984C51.1959 54.1254 51.7187 54.3396 52.2028 54.6268C52.687 54.9139 53.1112 55.2653 53.484 55.6767C53.8568 56.0881 54.161 56.5638 54.4096 57.0951C54.6538 57.6265 54.8209 58.2093 54.9109 58.8436L54.9066 58.8479ZM49.8719 58.5222L51.4744 58.925C51.6201 58.9636 51.7486 58.9679 51.8515 58.9421C51.9543 58.9164 52.04 58.8693 52.1 58.7964C52.1643 58.7236 52.2071 58.6336 52.2286 58.5265C52.25 58.4193 52.25 58.2993 52.2328 58.1708C52.2157 58.0422 52.1771 57.9137 52.1257 57.7894C52.07 57.6608 52.0015 57.5451 51.9115 57.4337C51.8215 57.3223 51.7187 57.228 51.603 57.1466C51.483 57.0651 51.3502 57.0051 51.2045 56.9666L49.6019 56.5638L49.8719 58.5222Z" fill="url(#paint6_linear_303_4790)"/>
<path d="M60.9483 66.5222L59.907 66.2608C59.4228 66.1365 58.9644 65.9351 58.5316 65.6565C58.0988 65.3737 57.7132 65.0351 57.3747 64.6366C57.0362 64.2381 56.7534 63.7967 56.5306 63.3039C56.3077 62.811 56.1578 62.3011 56.0849 61.7654L55.168 55.123L57.8374 55.7958L58.7116 62.1168C58.7544 62.4253 58.8744 62.6996 59.0758 62.931C59.2772 63.1667 59.5171 63.3167 59.7956 63.3896L60.2498 63.5053C60.5283 63.5738 60.7426 63.5353 60.8926 63.3896C61.0382 63.2439 61.0939 63.0124 61.0511 62.7039L60.177 56.383L62.8465 57.0558L63.7634 63.6981C63.8363 64.2338 63.8234 64.7052 63.7249 65.1123C63.6263 65.5194 63.4506 65.8494 63.2021 66.0979C62.9536 66.3465 62.6365 66.5093 62.2594 66.5865C61.8781 66.6636 61.4453 66.6422 60.9525 66.5179L60.9483 66.5222Z" fill="url(#paint7_linear_303_4790)"/>
<path d="M70.2208 68.8412L67.5514 68.1684L66.5358 60.8275L64.0506 60.2019L63.6436 57.2578L71.2963 59.182L71.7034 62.126L69.2053 61.4961L70.2208 68.8369V68.8412Z" fill="url(#paint8_linear_303_4790)"/>
</g>
<path d="M43.1744 20.0685C41.5204 20.4499 34.8446 17.7716 34.6475 10.2721C34.6132 9.03795 35.1017 6.30816 36.7214 5.99961C37.3127 5.88819 38.2896 6.08961 38.7524 6.47529C40.9677 8.31801 38.1825 11.8535 35.8515 12.3891C34.8317 12.6248 33.7477 12.4877 32.775 12.1063C31.0825 11.4506 29.6985 10.045 29.06 8.348C28.0702 5.70821 29.1243 2.68701 30.6497 0.462891" stroke="white" stroke-width="2.16" stroke-linecap="round" stroke-linejoin="round"/>
<path d="M102.301 40.5179C103.672 40.9635 109.508 39.198 110.233 32.877C110.353 31.8357 110.143 29.4958 108.797 29.1144C108.304 28.9773 107.465 29.0759 107.045 29.363C105.035 30.7557 107.126 33.9484 109.054 34.574C109.898 34.8483 110.824 34.814 111.677 34.5655C113.155 34.1369 114.427 33.0527 115.092 31.6643C116.124 29.5087 115.456 26.8775 114.333 24.8848" stroke="white" stroke-width="1.83" stroke-linecap="round" stroke-linejoin="round"/>
</g>
<defs>
<linearGradient id="paint0_linear_303_4790" x1="122.455" y1="5.72266" x2="14.6428" y2="87.9451" gradientUnits="userSpaceOnUse">
<stop offset="0.01" stop-color="#3184FF"/>
<stop offset="1" stop-color="#85A6FF"/>
</linearGradient>
<linearGradient id="paint1_linear_303_4790" x1="106.702" y1="13.9437" x2="8.81352" y2="89.7965" gradientUnits="userSpaceOnUse">
<stop offset="0.01" stop-color="#3184FF"/>
<stop offset="1" stop-color="#85A6FF"/>
</linearGradient>
<linearGradient id="paint2_linear_303_4790" x1="-27.4281" y1="38.2041" x2="62.8119" y2="145.759" gradientUnits="userSpaceOnUse">
<stop stop-color="white"/>
<stop offset="1" stop-color="white" stop-opacity="0.93"/>
</linearGradient>
<linearGradient id="paint3_linear_303_4790" x1="-12.3046" y1="40.6674" x2="76.7515" y2="134.705" gradientUnits="userSpaceOnUse">
<stop stop-color="white"/>
<stop offset="1" stop-color="white" stop-opacity="0.93"/>
</linearGradient>
<linearGradient id="paint4_linear_303_4790" x1="14.9374" y1="43.2581" x2="85.0164" y2="83.302" gradientUnits="userSpaceOnUse">
<stop stop-color="white"/>
<stop offset="1" stop-color="white" stop-opacity="0.93"/>
</linearGradient>
<linearGradient id="paint5_linear_303_4790" x1="-6.63535" y1="43.349" x2="83.5956" y2="150.083" gradientUnits="userSpaceOnUse">
<stop stop-color="white"/>
<stop offset="1" stop-color="white" stop-opacity="0.93"/>
</linearGradient>
<linearGradient id="paint6_linear_303_4790" x1="7.45745" y1="46.4417" x2="87.7159" y2="141.022" gradientUnits="userSpaceOnUse">
<stop stop-color="white"/>
<stop offset="1" stop-color="white" stop-opacity="0.93"/>
</linearGradient>
<linearGradient id="paint7_linear_303_4790" x1="15.1619" y1="48.2971" x2="99.6248" y2="145.497" gradientUnits="userSpaceOnUse">
<stop stop-color="white"/>
<stop offset="1" stop-color="white" stop-opacity="0.93"/>
</linearGradient>
<linearGradient id="paint8_linear_303_4790" x1="26.332" y1="50.3874" x2="112.008" y2="141.748" gradientUnits="userSpaceOnUse">
<stop stop-color="white"/>
<stop offset="1" stop-color="white" stop-opacity="0.93"/>
</linearGradient>
<clipPath id="clip0_303_4790">
<rect width="116" height="94" fill="white"/>
</clipPath>
</defs>
</svg>