<svg width="20" height="20" viewBox="0 0 20 20" fill="none" xmlns="http://www.w3.org/2000/svg">
<path d="M3.01974 12.4981C4.17369 13.6536 5.71038 14.3474 7.34032 14.4485C8.97027 14.5497 10.5809 14.0513 11.8689 13.0472L16.3006 17.4789C16.4577 17.6307 16.6682 17.7147 16.8867 17.7128C17.1052 17.7109 17.3143 17.6233 17.4688 17.4688C17.6233 17.3142 17.7109 17.1052 17.7128 16.8867C17.7147 16.6682 17.6307 16.4577 17.4789 16.3006L13.0472 11.8689C14.0958 10.5232 14.5916 8.82819 14.4334 7.12955C14.2752 5.4309 13.475 3.85657 12.196 2.72763C10.9169 1.59868 9.25544 1.00017 7.55029 1.05414C5.84515 1.10811 4.22482 1.8105 3.01974 3.01807C2.39707 3.64042 1.90313 4.37936 1.56612 5.19267C1.22912 6.00597 1.05566 6.87771 1.05566 7.75807C1.05566 8.63843 1.22912 9.51017 1.56612 10.3235C1.90313 11.1368 2.39707 11.8757 3.01974 12.4981ZM4.19808 4.19807C5.02189 3.37428 6.10584 2.86161 7.26526 2.7474C8.42469 2.6332 9.58784 2.92453 10.5565 3.57176C11.5253 4.21899 12.2396 5.18207 12.5778 6.29692C12.9161 7.41177 12.8573 8.60941 12.4115 9.68579C11.9658 10.7622 11.1606 11.6507 10.1332 12.2C9.10577 12.7493 7.91968 12.9253 6.77701 12.6982C5.63434 12.471 4.60578 11.8547 3.86657 10.9542C3.12737 10.0537 2.72325 8.92477 2.72308 7.75974C2.72079 7.09772 2.85 6.44183 3.1032 5.83014C3.3564 5.21845 3.72856 4.66313 4.19808 4.19641V4.19807Z" fill="#858585"/>
<path fill-rule="evenodd" clip-rule="evenodd" d="M9.44121 12.5055C8.80132 12.7323 8.12169 12.8275 7.44356 12.7849C7.22073 12.771 6.99806 12.7421 6.77701 12.6982C5.79676 12.5033 4.90049 12.022 4.19882 11.3207C4.19845 11.3203 4.19807 11.3199 4.19769 11.3195C4.08184 11.2036 3.9713 11.0818 3.86657 10.9542C3.5497 10.5682 3.2944 10.1402 3.1061 9.68537C3.09111 9.64918 3.07655 9.61282 3.06242 9.5763C2.83984 9.00108 2.72317 8.38562 2.72308 7.75974C2.72307 7.75918 2.72307 7.75863 2.72307 7.75807C2.72101 7.09662 2.85021 6.44132 3.1032 5.83014C3.10313 5.8303 3.10327 5.82998 3.1032 5.83014C3.3561 5.21937 3.7278 4.66433 4.1964 4.19807C4.19668 4.19779 4.19696 4.19752 4.19724 4.19724C4.19706 4.19741 4.19742 4.19706 4.19724 4.19724C4.19734 4.19714 4.19798 4.19651 4.19808 4.19641V4.19807C4.1979 4.19825 4.19825 4.1979 4.19808 4.19807C4.19818 4.19797 4.19881 4.19734 4.19891 4.19724C4.19919 4.19696 4.19946 4.19668 4.19974 4.19641C4.19961 4.19654 4.19987 4.19628 4.19974 4.19641C5.00736 3.38974 6.06497 2.88145 7.19808 2.75448C7.22044 2.75197 7.24284 2.74961 7.26526 2.7474C7.37793 2.73631 7.49064 2.72904 7.6032 2.72555C8.64891 2.69318 9.68197 2.98743 10.5565 3.57176C10.7439 3.69694 10.9217 3.83393 11.0892 3.98156C11.7875 4.5972 12.305 5.39769 12.5778 6.29692C12.6761 6.62071 12.7408 6.95148 12.7723 7.28423C12.8411 8.01111 12.7513 8.74746 12.5055 9.44117C12.4764 9.52333 12.445 9.6049 12.4115 9.68579C12.2382 10.1044 12.0105 10.4946 11.7364 10.8475C11.4787 11.1794 11.1801 11.4782 10.8472 11.7367C10.624 11.91 10.3853 12.0652 10.1332 12.2C9.90936 12.3196 9.67801 12.4216 9.44121 12.5055ZM13.7737 10.7094C13.5732 11.1168 13.3303 11.5056 13.0472 11.8689L17.4789 16.3006C17.6307 16.4577 17.7147 16.6682 17.7128 16.8867C17.7109 17.1052 17.6233 17.3142 17.4688 17.4688C17.3143 17.6233 17.1052 17.7109 16.8867 17.7128C16.6682 17.7147 16.4577 17.6307 16.3006 17.4789L11.8689 13.0472C11.5681 13.2818 11.2496 13.4887 10.9174 13.6669C10.8487 13.7037 10.7793 13.7394 10.7094 13.7737C9.67124 14.2846 8.51075 14.5211 7.34032 14.4485C7.04044 14.4299 6.74371 14.3912 6.45194 14.3333C5.15788 14.0765 3.96138 13.441 3.01974 12.4981C2.86452 12.3429 2.7173 12.1805 2.57851 12.0116C2.27969 11.6477 2.01998 11.2534 1.80374 10.8349C1.71754 10.6681 1.63824 10.4975 1.56612 10.3235C1.40631 9.93779 1.28328 9.53896 1.19808 9.13231C1.10412 8.68385 1.05618 8.22587 1.05567 7.7655C1.05567 7.76366 1.05566 7.76183 1.05566 7.75999C1.05566 7.75935 1.05566 7.75871 1.05566 7.75807C1.05566 7.2952 1.10362 6.83471 1.19808 6.38384C1.2832 5.97755 1.40609 5.57907 1.56569 5.19371C1.56584 5.19336 1.56598 5.19301 1.56612 5.19267C1.70953 4.84659 1.88135 4.51397 2.07941 4.19807C2.07976 4.19752 2.08011 4.19696 2.08046 4.19641C2.34743 3.77089 2.66202 3.37574 3.01892 3.01889C3.0192 3.01862 3.01947 3.01835 3.01974 3.01807C3.02091 3.0169 3.02208 3.01573 3.02326 3.01456C4.12162 1.91555 5.56422 1.23577 7.10136 1.08345C7.13356 1.08026 7.1658 1.0773 7.19808 1.07457C7.315 1.0647 7.43245 1.05787 7.55029 1.05414C8.95491 1.00968 10.3299 1.40797 11.4859 2.18079C11.7332 2.34615 11.9705 2.52865 12.196 2.72763C13.1363 3.5576 13.8178 4.62829 14.1757 5.81213C14.3046 6.23858 14.3915 6.6797 14.4334 7.12955C14.5355 8.22641 14.365 9.32176 13.949 10.3225C13.8947 10.4531 13.8363 10.5822 13.7737 10.7094Z" fill="#858585"/>
</svg>
