<svg width="28" height="28" viewBox="0 0 28 28" fill="none" xmlns="http://www.w3.org/2000/svg"  >
<path d="M14 0C11.2795 0.00516438 8.61922 0.800663 6.34318 2.2896C4.06714 3.77854 2.27358 5.89665 1.18097 8.38594C0.0883573 10.8752 -0.256152 13.6283 0.189405 16.3097C0.634961 18.9912 1.85135 21.4853 3.69042 23.4883C5.00391 24.9108 6.59806 26.0461 8.37242 26.8226C10.1468 27.5991 12.0629 28 14 28C15.9371 28 17.8532 27.5991 19.6276 26.8226C21.4019 26.0461 22.9961 24.9108 24.3096 23.4883C26.1486 21.4853 27.365 18.9912 27.8106 16.3097C28.2562 13.6283 27.9116 10.8752 26.819 8.38594C25.7264 5.89665 23.9329 3.77854 21.6568 2.2896C19.3808 0.800663 16.7205 0.00516438 14 0ZM14 25.2261C11.0943 25.2217 8.30366 24.0913 6.21521 22.0728C6.84928 20.5306 7.92791 19.2115 9.31405 18.2831C10.7002 17.3548 12.3313 16.8591 14 16.8591C15.6687 16.8591 17.2998 17.3548 18.6859 18.2831C20.0721 19.2115 21.1507 20.5306 21.7848 22.0728C19.6963 24.0913 16.9057 25.2217 14 25.2261ZM11.1947 11.2116C11.1947 10.6572 11.3592 10.1153 11.6675 9.65438C11.9757 9.19345 12.4138 8.83419 12.9264 8.62205C13.4391 8.4099 14.0031 8.3544 14.5473 8.46255C15.0915 8.5707 15.5913 8.83765 15.9837 9.22964C16.376 9.62163 16.6432 10.1211 16.7514 10.6648C16.8597 11.2085 16.8041 11.772 16.5918 12.2842C16.3795 12.7964 16.0199 13.2341 15.5586 13.5421C15.0972 13.8501 14.5548 14.0145 14 14.0145C13.256 14.0145 12.5424 13.7192 12.0163 13.1935C11.4902 12.6679 11.1947 11.955 11.1947 11.2116ZM23.6924 19.6203C22.4392 17.4785 20.5103 15.8126 18.208 14.8834C18.9222 14.0743 19.3875 13.0764 19.5482 12.0096C19.7089 10.9428 19.558 9.85234 19.1138 8.86906C18.6695 7.88578 17.9507 7.05147 17.0437 6.46624C16.1366 5.881 15.0798 5.56971 14 5.56971C12.9202 5.56971 11.8634 5.881 10.9563 6.46624C10.0493 7.05147 9.33049 7.88578 8.88624 8.86906C8.44198 9.85234 8.29114 10.9428 8.4518 12.0096C8.61247 13.0764 9.07782 14.0743 9.79201 14.8834C7.48967 15.8126 5.56083 17.4785 4.30759 19.6203C3.30881 17.9205 2.7811 15.9856 2.77869 14.0145C2.77869 11.041 3.96093 8.18928 6.06533 6.0867C8.16974 3.98411 11.0239 2.8029 14 2.8029C16.9761 2.8029 19.8303 3.98411 21.9347 6.0867C24.0391 8.18928 25.2213 11.041 25.2213 14.0145C25.2189 15.9856 24.6912 17.9205 23.6924 19.6203Z" fill="#565656" />
      </svg>