<svg width="17" height="22" viewBox="0 0 17 22" fill="none" xmlns="http://www.w3.org/2000/svg">
<path id="Symbol" d="M3.00732 22C2.00488 22 1.25146 21.7466 0.747042 21.2397C0.249014 20.7393 0 19.9855 0 18.9783V9.25033C0 8.2431 0.249014 7.48929 0.747042 6.98892C1.25146 6.48206 2.00488 6.22862 3.00732 6.22862H5.89014V7.79796H3.02648C2.54761 7.79796 2.18047 7.92793 1.92507 8.18786C1.66967 8.44779 1.54197 8.83119 1.54197 9.33806V18.8906C1.54197 19.3974 1.66967 19.7808 1.92507 20.0408C2.18047 20.3007 2.54761 20.4307 3.02648 20.4307H13.9639C14.4364 20.4307 14.8036 20.3007 15.0654 20.0408C15.3271 19.7808 15.458 19.3974 15.458 18.8906V9.33806C15.458 8.83119 15.3271 8.44779 15.0654 8.18786C14.8036 7.92793 14.4364 7.79796 13.9639 7.79796H11.1099V6.22862H13.9927C14.9951 6.22862 15.7454 6.48206 16.2434 6.98892C16.7478 7.49579 17 8.24959 17 9.25033V18.9783C17 19.979 16.7478 20.7328 16.2434 21.2397C15.7454 21.7466 14.9951 22 13.9927 22H3.00732ZM8.49521 14.3677C8.29089 14.3677 8.11211 14.293 7.95887 14.1436C7.81202 13.9941 7.73859 13.8154 7.73859 13.6074V3.59681L7.79606 2.13469L7.14479 2.82676L5.69859 4.40585C5.56451 4.56181 5.38892 4.63979 5.17183 4.63979C4.96751 4.63979 4.8015 4.5748 4.6738 4.44484C4.5461 4.31487 4.48225 4.14917 4.48225 3.94772C4.48225 3.76577 4.55568 3.59681 4.70254 3.44085L7.93972 0.263181C8.04188 0.165707 8.13446 0.0974745 8.21746 0.0584847C8.30685 0.0194949 8.39944 0 8.49521 0C8.59737 0 8.68995 0.0194949 8.77296 0.0584847C8.86235 0.0974745 8.95493 0.165707 9.0507 0.263181L12.2879 3.44085C12.4411 3.59681 12.5177 3.76577 12.5177 3.94772C12.5177 4.14917 12.4507 4.31487 12.3166 4.44484C12.1825 4.5748 12.0165 4.63979 11.8186 4.63979C11.6079 4.63979 11.4355 4.56181 11.3014 4.40585L9.84563 2.82676L9.20394 2.13469L9.26141 3.59681V13.6074C9.26141 13.8154 9.18479 13.9941 9.03155 14.1436C8.88469 14.293 8.70592 14.3677 8.49521 14.3677Z" fill="#3184FF"/>
</svg>
