<svg width="20" height="20" viewBox="0 0 20 20" fill="none" xmlns="http://www.w3.org/2000/svg">
<path d="M3.33349 3.33203L16.6668 16.6654M13.7502 13.9619C12.623 14.5691 11.349 14.9986 10.0002 14.9986C7.05794 14.9986 4.47211 12.9552 2.98925 11.481C2.59783 11.0919 2.40215 10.8974 2.27758 10.5155C2.18874 10.2431 2.18871 9.75417 2.27758 9.48181C2.40219 9.09992 2.59827 8.90491 2.99047 8.51509C3.73787 7.77221 4.76525 6.88503 5.97707 6.18766M16.2502 12.1932C16.5277 11.9491 16.7819 11.709 17.01 11.4823L17.0124 11.4797C17.4029 11.0915 17.5987 10.8969 17.7231 10.5159C17.8119 10.2435 17.8118 9.75439 17.7229 9.48203C17.5984 9.10025 17.4025 8.90515 17.0113 8.51629C15.5284 7.0421 12.9424 4.9987 10.0002 4.9987C9.7189 4.9987 9.44091 5.01737 9.16682 5.05243M11.1026 11.2487C10.8088 11.508 10.4228 11.6654 10.0002 11.6654C9.07968 11.6654 8.33349 10.9192 8.33349 9.9987C8.33349 9.54911 8.5115 9.14126 8.80089 8.84147" stroke="#1F1F1F" stroke-width="1.6" stroke-linecap="round" stroke-linejoin="round"/>
</svg>
