<svg width="20" height="21" viewBox="0 0 20 21" fill="none" xmlns="http://www.w3.org/2000/svg">
<path d="M2.98924 11.9823C4.47211 13.4565 7.05819 15.4999 10.0004 15.4999C12.9426 15.4999 15.5282 13.4565 17.0111 11.9823C17.4021 11.5936 17.5983 11.3985 17.7229 11.0168C17.8117 10.7444 17.8117 10.2556 17.7229 9.98325C17.5983 9.60151 17.4022 9.40642 17.0111 9.01759C15.5282 7.5434 12.9426 5.5 10.0004 5.5C7.05819 5.5 4.47211 7.5434 2.98924 9.01759C2.59786 9.40669 2.40215 9.60137 2.27757 9.98325C2.18873 10.2556 2.18873 10.7444 2.27757 11.0168C2.40215 11.3986 2.59786 11.5932 2.98924 11.9823Z" stroke="#1F1F1F" stroke-width="1.6" stroke-linecap="round" stroke-linejoin="round"/>
<path d="M8.33358 10.5C8.33358 11.4205 9.07977 12.1667 10.0002 12.1667C10.9207 12.1667 11.6669 11.4205 11.6669 10.5C11.6669 9.57953 10.9207 8.83333 10.0002 8.83333C9.07977 8.83333 8.33358 9.57953 8.33358 10.5Z" stroke="#1F1F1F" stroke-width="1.6" stroke-linecap="round" stroke-linejoin="round"/>
</svg>
